PathFileType	4	(X/Y/Z)	D:\TRACE\spotREDO_2-26-24\spot_justBody_Motion_2_5-v60.trc
DataRate	CameraRate	NumFrames	NumMarkers	Units	OrigDataRate	OrigDataStartFrame	OrigNumFrames
100.00	100.00	      21	9	mm	100.00	876	      7000
Frame#	Time	front left toe			Front right toe			aft left toe			aft right toe			Arm			FL body			FR body			AL Body			AR Body			
		X1	Y1	Z1	X2	Y2	Z2	X3	Y3	Z3	X4	Y4	Z4	X5	Y5	Z5	X6	Y6	Z6	X7	Y7	Z7	X8	Y8	Z8	X9	Y9	Z9	

876	8.750	-343.97684	15.87086	-79.09243	192.13916	20.76540	-70.05940	-224.77147	44.39481	437.84586	332.04510	57.67434	388.21060	-106.83778	795.93469	-256.32275	-183.80656	538.11908	-205.57889	-29.45724	542.74451	-227.98763	-69.26816	601.10870	666.72595	77.20326	604.20697	649.65320	
877	8.760	-342.83511	16.02008	-78.91491	193.23596	21.23058	-69.67245	-223.96754	43.72313	437.92609	333.25470	56.57409	388.84586	-105.97071	795.56219	-256.31097	-183.41212	537.84583	-205.76053	-29.06038	542.54260	-228.09277	-69.16817	601.54993	667.01563	77.59270	604.18256	649.63049	
878	8.770	-341.74265	16.27661	-78.55052	194.12978	21.32619	-69.64841	-222.86424	43.12081	438.28403	334.02502	55.84428	389.09088	-105.53398	795.28632	-256.33643	-182.68030	537.41949	-205.77565	-28.52673	542.25201	-228.22771	-68.52694	601.46515	666.99756	76.89041	604.36145	649.48438	
879	8.780	-340.63467	16.20473	-78.02932	194.92769	21.40737	-69.47091	-221.66411	42.40989	438.66925	335.10968	55.18045	389.33066	-104.80558	794.81403	-256.34229	-182.08720	537.16864	-205.73869	-27.90088	541.88959	-228.23854	-67.73749	600.84039	666.65442	77.65263	604.15814	649.50793	
880	8.790	-339.54544	16.67775	-77.88685	196.38078	21.51716	-69.07137	-220.68538	41.56263	438.92520	336.38174	54.58341	389.42703	-104.52663	794.59613	-256.31152	-181.55885	536.95862	-205.76474	-27.22728	541.48840	-228.22815	-66.90591	600.65375	666.61011	78.54008	604.03589	649.52612	
881	8.800	-338.34283	16.72160	-77.76413	197.23375	21.90489	-68.89873	-219.56174	40.74674	438.90125	337.27435	53.91498	389.70450	-103.73289	794.26575	-256.34134	-180.79225	536.60736	-205.70018	-26.33272	541.27069	-228.08116	-67.87191	601.81207	667.17407	79.47789	603.75134	649.60645	
882	8.810	-337.27292	16.43293	-77.28305	197.70110	23.75499	-68.41520	-218.49403	40.09654	439.25320	338.80045	52.94632	390.33319	-103.30836	793.96472	-256.51688	-180.23970	536.40143	-205.79195	-25.74825	540.94342	-228.07495	-66.91595	601.61725	667.09943	80.58064	603.36865	649.63599	
883	8.820	-336.37552	16.39165	-77.24995	196.87865	31.33323	-65.88498	-217.02678	39.26938	439.76981	339.74933	51.86892	390.30200	-102.10751	793.69391	-256.92090	-179.98567	536.28363	-206.03078	-25.59866	540.42200	-228.18515	-66.16898	601.34686	666.98376	81.18327	603.01312	649.48712	
884	8.830	-335.45966	16.71284	-76.94023	195.73340	42.59411	-62.47083	-216.26082	38.74249	439.82565	340.53659	51.43191	390.59335	-100.50210	793.24115	-256.96170	-179.43393	535.91559	-206.21045	-24.98045	539.45612	-228.27440	-65.31647	601.24744	666.75323	82.17111	602.61542	649.12878	
885	8.840	-334.07861	16.81342	-76.32384	197.04012	54.95953	-61.59498	-214.96295	37.89006	440.17838	341.61459	50.70226	391.01950	-99.59258	792.66492	-257.18103	-178.73749	535.54364	-205.99222	-24.49658	538.86255	-228.54193	-64.70725	601.13391	666.73169	82.98757	602.15948	649.01001	
886	8.850	-333.02155	16.92118	-75.95924	199.67838	66.45379	-65.45822	-213.70270	37.03784	440.57611	342.66580	50.22466	391.22708	-98.36799	791.92981	-257.60611	-177.79176	535.10419	-206.01370	-23.75760	538.29144	-228.53119	-64.17779	600.96570	666.76917	83.79469	601.84827	649.11334	
887	8.860	-331.83685	17.37597	-76.01176	202.88838	78.28581	-71.82994	-213.04416	36.16587	440.75095	343.69949	49.42964	391.49988	-97.52397	791.42493	-257.64294	-177.14627	534.86005	-206.35342	-22.64797	537.77795	-228.55338	-63.58236	600.54059	666.77368	84.22486	601.49554	649.20874	
888	8.870	-330.41531	17.61803	-75.77878	204.39890	89.50476	-77.89318	-211.66879	35.06530	440.97214	344.87253	48.33847	391.86334	-97.07283	791.16962	-257.51312	-176.08861	534.45813	-206.42311	-21.67638	537.60217	-228.37392	-62.21780	599.03491	666.40314	84.59521	600.91199	649.35498	
889	8.880	-329.13748	17.77372	-75.26151	204.59390	99.57547	-81.05980	-210.51790	34.10361	441.58865	346.17542	47.81611	392.19861	-96.16405	790.94354	-257.31693	-175.06560	534.01807	-206.31387	-20.74850	537.34515	-228.47342	-61.51254	598.37360	666.34387	85.37663	600.17432	649.32086	
890	8.890	-328.47183	18.23084	-75.11819	205.41048	108.51769	-81.68830	-209.46741	33.19894	441.68219	347.10638	46.92765	392.33942	-95.05901	790.72723	-257.10803	-174.33298	533.66626	-206.34955	-19.96101	536.99829	-228.60223	-60.68402	597.76294	666.34009	86.22807	599.52222	649.34924	
891	8.900	-327.24567	18.06271	-74.47331	206.49042	116.95390	-81.81478	-208.67896	32.63237	442.01276	348.49396	45.92189	392.77289	-93.73458	790.42108	-257.15070	-173.40918	533.18787	-206.31393	-19.25288	536.47070	-228.58325	-59.01257	598.63470	667.91101	87.39780	598.76971	649.42841	
892	8.910	-326.12958	18.51321	-73.90640	209.46983	124.47033	-82.93584	-207.21165	31.47634	442.64838	349.34058	45.16592	393.00815	-92.76871	789.92731	-257.21707	-172.75874	532.86871	-206.37369	-18.53686	536.02875	-228.60538	-58.44053	598.22711	667.93054	88.25019	598.27423	649.38110	
893	8.920	-325.16312	18.57079	-73.94509	212.74423	130.66623	-86.31355	-206.06662	30.56807	442.58237	350.54962	44.46586	393.37363	-92.01241	789.30200	-257.16556	-172.00215	532.29047	-206.35648	-17.77610	535.56567	-228.48187	-57.49794	597.70624	668.03778	89.10851	597.70947	649.30164	
894	8.930	-323.99121	18.77288	-73.39367	216.17921	135.15691	-90.69601	-205.23335	29.59216	442.87256	351.83661	44.23543	393.32803	-91.60423	788.72333	-256.99796	-171.01814	531.72211	-206.06644	-16.62725	535.09009	-228.31416	-56.63651	596.98370	668.17621	89.39994	597.23175	649.36230	
895	8.940	-322.75620	19.11757	-73.11234	218.29492	137.02652	-94.79055	-204.00795	28.50817	443.47900	352.58777	42.92327	393.99063	-91.23257	788.41547	-256.73242	-169.98738	531.44464	-205.96883	-15.70278	534.82336	-228.34036	-55.76819	594.92645	666.70319	88.88226	597.66162	649.17645	
896	8.950	-321.55057	19.22625	-72.92767	220.33632	136.27895	-97.62418	-202.91685	27.75884	443.73376	354.01334	42.17746	394.16675	-90.43500	788.26355	-256.55020	-169.07442	531.14948	-206.03264	-14.79952	534.57123	-228.44060	-54.66401	594.12616	666.70148	91.87019	596.20557	649.47290	
